<svg xmlns="http://www.w3.org/2000/svg" xmlns:xlink="http://www.w3.org/1999/xlink" width="600" height="400" version="1.1"><polyline points="38.136 370.947 38.136 374.947" style="fill:none;stroke:#000;stroke-width:1"/><polyline points="76.218 370.947 76.218 374.947" style="fill:none;stroke:#000;stroke-width:1"/><polyline points="95.259 370.947 95.259 374.947" style="fill:none;stroke:#000;stroke-width:1"/><polyline points="114.3 370.947 114.3 374.947" style="fill:none;stroke:#000;stroke-width:1"/><polyline points="133.342 370.947 133.342 374.947" style="fill:none;stroke:#000;stroke-width:1"/><polyline points="171.424 370.947 171.424 374.947" style="fill:none;stroke:#000;stroke-width:1"/><polyline points="190.465 370.947 190.465 374.947" style="fill:none;stroke:#000;stroke-width:1"/><polyline points="209.507 370.947 209.507 374.947" style="fill:none;stroke:#000;stroke-width:1"/><polyline points="228.548 370.947 228.548 374.947" style="fill:none;stroke:#000;stroke-width:1"/><polyline points="266.63 370.947 266.63 374.947" style="fill:none;stroke:#000;stroke-width:1"/><polyline points="285.672 370.947 285.672 374.947" style="fill:none;stroke:#000;stroke-width:1"/><polyline points="304.713 370.947 304.713 374.947" style="fill:none;stroke:#000;stroke-width:1"/><polyline points="323.754 370.947 323.754 374.947" style="fill:none;stroke:#000;stroke-width:1"/><polyline points="361.837 370.947 361.837 374.947" style="fill:none;stroke:#000;stroke-width:1"/><polyline points="380.878 370.947 380.878 374.947" style="fill:none;stroke:#000;stroke-width:1"/><polyline points="399.919 370.947 399.919 374.947" style="fill:none;stroke:#000;stroke-width:1"/><polyline points="418.96 370.947 418.96 374.947" style="fill:none;stroke:#000;stroke-width:1"/><polyline points="457.043 370.947 457.043 374.947" style="fill:none;stroke:#000;stroke-width:1"/><polyline points="476.084 370.947 476.084 374.947" style="fill:none;stroke:#000;stroke-width:1"/><polyline points="495.125 370.947 495.125 374.947" style="fill:none;stroke:#000;stroke-width:1"/><polyline points="514.166 370.947 514.166 374.947" style="fill:none;stroke:#000;stroke-width:1"/><polyline points="552.249 370.947 552.249 374.947" style="fill:none;stroke:#000;stroke-width:1"/><polyline points="571.29 370.947 571.29 374.947" style="fill:none;stroke:#000;stroke-width:1"/><polyline points="590.331 370.947 590.331 374.947" style="fill:none;stroke:#000;stroke-width:1"/><polyline points="34.498 365.604 30.498 365.604" style="fill:none;stroke:#000;stroke-width:1"/><polyline points="34.498 353.298 30.498 353.298" style="fill:none;stroke:#000;stroke-width:1"/><polyline points="34.498 328.687 30.498 328.687" style="fill:none;stroke:#000;stroke-width:1"/><polyline points="34.498 316.382 30.498 316.382" style="fill:none;stroke:#000;stroke-width:1"/><polyline points="34.498 304.077 30.498 304.077" style="fill:none;stroke:#000;stroke-width:1"/><polyline points="34.498 291.771 30.498 291.771" style="fill:none;stroke:#000;stroke-width:1"/><polyline points="34.498 267.16 30.498 267.16" style="fill:none;stroke:#000;stroke-width:1"/><polyline points="34.498 254.855 30.498 254.855" style="fill:none;stroke:#000;stroke-width:1"/><polyline points="34.498 242.549 30.498 242.549" style="fill:none;stroke:#000;stroke-width:1"/><polyline points="34.498 230.244 30.498 230.244" style="fill:none;stroke:#000;stroke-width:1"/><polyline points="34.498 205.633 30.498 205.633" style="fill:none;stroke:#000;stroke-width:1"/><polyline points="34.498 193.327 30.498 193.327" style="fill:none;stroke:#000;stroke-width:1"/><polyline points="34.498 181.022 30.498 181.022" style="fill:none;stroke:#000;stroke-width:1"/><polyline points="34.498 168.717 30.498 168.717" style="fill:none;stroke:#000;stroke-width:1"/><polyline points="34.498 144.106 30.498 144.106" style="fill:none;stroke:#000;stroke-width:1"/><polyline points="34.498 131.8 30.498 131.8" style="fill:none;stroke:#000;stroke-width:1"/><polyline points="34.498 119.495 30.498 119.495" style="fill:none;stroke:#000;stroke-width:1"/><polyline points="34.498 107.189 30.498 107.189" style="fill:none;stroke:#000;stroke-width:1"/><polyline points="34.498 82.579 30.498 82.579" style="fill:none;stroke:#000;stroke-width:1"/><polyline points="34.498 70.273 30.498 70.273" style="fill:none;stroke:#000;stroke-width:1"/><polyline points="34.498 57.968 30.498 57.968" style="fill:none;stroke:#000;stroke-width:1"/><polyline points="34.498 45.662 30.498 45.662" style="fill:none;stroke:#000;stroke-width:1"/><text fill="#000" dominant-baseline="hanging" font-family="Segoe UI" font-size="12" font-weight="400" text-anchor="middle" transform="translate(57.1768,381.947)">-1.5</text><text fill="#000" dominant-baseline="hanging" font-family="Segoe UI" font-size="12" font-weight="400" text-anchor="middle" transform="translate(152.3829,381.947)">-1</text><text fill="#000" dominant-baseline="hanging" font-family="Segoe UI" font-size="12" font-weight="400" text-anchor="middle" transform="translate(247.5891,381.947)">-0.5</text><text fill="#000" dominant-baseline="hanging" font-family="Segoe UI" font-size="12" font-weight="400" text-anchor="middle" transform="translate(342.7953,381.947)">0</text><text fill="#000" dominant-baseline="hanging" font-family="Segoe UI" font-size="12" font-weight="400" text-anchor="middle" transform="translate(438.0014,381.947)">0.5</text><text fill="#000" dominant-baseline="hanging" font-family="Segoe UI" font-size="12" font-weight="400" text-anchor="middle" transform="translate(533.2076,381.947)">1</text><polyline points="57.177 370.947 57.177 377.947" style="fill:none;stroke:#000;stroke-width:1"/><polyline points="152.383 370.947 152.383 377.947" style="fill:none;stroke:#000;stroke-width:1"/><polyline points="247.589 370.947 247.589 377.947" style="fill:none;stroke:#000;stroke-width:1"/><polyline points="342.795 370.947 342.795 377.947" style="fill:none;stroke:#000;stroke-width:1"/><polyline points="438.001 370.947 438.001 377.947" style="fill:none;stroke:#000;stroke-width:1"/><polyline points="533.208 370.947 533.208 377.947" style="fill:none;stroke:#000;stroke-width:1"/><text fill="#000" dominant-baseline="middle" font-family="Segoe UI" font-size="12" font-weight="400" text-anchor="end" transform="translate(23.498,340.9929)">-1</text><text fill="#000" dominant-baseline="middle" font-family="Segoe UI" font-size="12" font-weight="400" text-anchor="end" transform="translate(23.498,279.4656)">-0.5</text><text fill="#000" dominant-baseline="middle" font-family="Segoe UI" font-size="12" font-weight="400" text-anchor="end" transform="translate(23.498,217.9384)">0</text><text fill="#000" dominant-baseline="middle" font-family="Segoe UI" font-size="12" font-weight="400" text-anchor="end" transform="translate(23.498,156.4112)">0.5</text><text fill="#000" dominant-baseline="middle" font-family="Segoe UI" font-size="12" font-weight="400" text-anchor="end" transform="translate(23.498,94.8839)">1</text><text fill="#000" dominant-baseline="middle" font-family="Segoe UI" font-size="12" font-weight="400" text-anchor="end" transform="translate(23.498,33.3567)">1.5</text><polyline points="34.498 340.993 27.498 340.993" style="fill:none;stroke:#000;stroke-width:1"/><polyline points="34.498 279.466 27.498 279.466" style="fill:none;stroke:#000;stroke-width:1"/><polyline points="34.498 217.938 27.498 217.938" style="fill:none;stroke:#000;stroke-width:1"/><polyline points="34.498 156.411 27.498 156.411" style="fill:none;stroke:#000;stroke-width:1"/><polyline points="34.498 94.884 27.498 94.884" style="fill:none;stroke:#000;stroke-width:1"/><polyline points="34.498 33.357 27.498 33.357" style="fill:none;stroke:#000;stroke-width:1"/><ellipse cx="272.58" cy="317.007" rx="5" ry="5" style="fill:#f0f;stroke:none"/><ellipse cx="300.78" cy="236.496" rx="5" ry="5" style="fill:#f0f;stroke:none"/><ellipse cx="277.345" cy="254.48" rx="5" ry="5" style="fill:#f0f;stroke:none"/><ellipse cx="137.171" cy="218.933" rx="5" ry="5" style="fill:#f0f;stroke:none"/><ellipse cx="85.398" cy="220.961" rx="5" ry="5" style="fill:#f0f;stroke:none"/><ellipse cx="147.588" cy="234.767" rx="5" ry="5" style="fill:#f0f;stroke:none"/><ellipse cx="213.922" cy="208.714" rx="5" ry="5" style="fill:#f0f;stroke:none"/><ellipse cx="127.619" cy="212.392" rx="5" ry="5" style="fill:#f0f;stroke:none"/><ellipse cx="286.962" cy="210.36" rx="5" ry="5" style="fill:#f0f;stroke:none"/><ellipse cx="102.641" cy="220.584" rx="5" ry="5" style="fill:#f0f;stroke:none"/><ellipse cx="291.816" cy="209.274" rx="5" ry="5" style="fill:#f0f;stroke:none"/><ellipse cx="235.19" cy="212.388" rx="5" ry="5" style="fill:#f0f;stroke:none"/><ellipse cx="210.212" cy="220.58" rx="5" ry="5" style="fill:#f0f;stroke:none"/><ellipse cx="74.548" cy="233.121" rx="5" ry="5" style="fill:#f0f;stroke:none"/><ellipse cx="213.922" cy="208.714" rx="5" ry="5" style="fill:#f0f;stroke:none"/><ellipse cx="61.286" cy="238.446" rx="5" ry="5" style="fill:#f0f;stroke:none"/><ellipse cx="40.018" cy="234.772" rx="5" ry="5" style="fill:#f0f;stroke:none"/><ellipse cx="289.456" cy="208.664" rx="5" ry="5" style="fill:#f0f;stroke:none"/><ellipse cx="212.705" cy="218.883" rx="5" ry="5" style="fill:#f0f;stroke:none"/><ellipse cx="126.403" cy="222.562" rx="5" ry="5" style="fill:#f0f;stroke:none"/><ellipse cx="289.456" cy="208.664" rx="5" ry="5" style="fill:#f0f;stroke:none"/><ellipse cx="308.35" cy="220.973" rx="5" ry="5" style="fill:#f0f;stroke:none"/><ellipse cx="139.664" cy="217.237" rx="5" ry="5" style="fill:#f0f;stroke:none"/><ellipse cx="216.415" cy="207.017" rx="5" ry="5" style="fill:#f0f;stroke:none"/><ellipse cx="216.415" cy="207.017" rx="5" ry="5" style="fill:#f0f;stroke:none"/><ellipse cx="203.153" cy="212.343" rx="5" ry="5" style="fill:#f0f;stroke:none"/><ellipse cx="289.456" cy="208.664" rx="5" ry="5" style="fill:#f0f;stroke:none"/><ellipse cx="87.892" cy="219.265" rx="5" ry="5" style="fill:#f0f;stroke:none"/><ellipse cx="317.684" cy="209.668" rx="5" ry="5" style="fill:#f0f;stroke:none"/><ellipse cx="306.057" cy="215.63" rx="5" ry="5" style="fill:#f0f;stroke:none"/><ellipse cx="227.266" cy="194.858" rx="5" ry="5" style="fill:#f0f;stroke:none"/><ellipse cx="223.556" cy="206.724" rx="5" ry="5" style="fill:#f0f;stroke:none"/><ellipse cx="150.515" cy="205.077" rx="5" ry="5" style="fill:#f0f;stroke:none"/><ellipse cx="223.556" cy="206.724" rx="5" ry="5" style="fill:#f0f;stroke:none"/><ellipse cx="302.128" cy="203.761" rx="5" ry="5" style="fill:#f0f;stroke:none"/><ellipse cx="286.634" cy="197.052" rx="5" ry="5" style="fill:#f0f;stroke:none"/><ellipse cx="202.288" cy="203.049" rx="5" ry="5" style="fill:#f0f;stroke:none"/><ellipse cx="541.886" cy="199.721" rx="5" ry="5" style="fill:#00bf7f;stroke:none"/><ellipse cx="502.988" cy="258.082" rx="5" ry="5" style="fill:#00bf7f;stroke:none"/><ellipse cx="448.84" cy="266.671" rx="5" ry="5" style="fill:#00bf7f;stroke:none"/><ellipse cx="378.342" cy="309.452" rx="5" ry="5" style="fill:#00bf7f;stroke:none"/><ellipse cx="492.835" cy="279.998" rx="5" ry="5" style="fill:#00bf7f;stroke:none"/><ellipse cx="586.535" cy="226.165" rx="5" ry="5" style="fill:#00bf7f;stroke:none"/><ellipse cx="390.48" cy="291.939" rx="5" ry="5" style="fill:#00bf7f;stroke:none"/><ellipse cx="441.387" cy="300.94" rx="5" ry="5" style="fill:#00bf7f;stroke:none"/><ellipse cx="415.124" cy="185.964" rx="5" ry="5" style="fill:#00bf7f;stroke:none"/><ellipse cx="480.683" cy="327.242" rx="5" ry="5" style="fill:#00bf7f;stroke:none"/><ellipse cx="356.663" cy="282.075" rx="5" ry="5" style="fill:#00bf7f;stroke:none"/><ellipse cx="427.756" cy="296.507" rx="5" ry="5" style="fill:#00bf7f;stroke:none"/><ellipse cx="366.334" cy="289.152" rx="5" ry="5" style="fill:#00bf7f;stroke:none"/><ellipse cx="412.153" cy="343.949" rx="5" ry="5" style="fill:#00bf7f;stroke:none"/><ellipse cx="453.928" cy="268.219" rx="5" ry="5" style="fill:#00bf7f;stroke:none"/><ellipse cx="549.715" cy="243.718" rx="5" ry="5" style="fill:#00bf7f;stroke:none"/><ellipse cx="436.355" cy="264.945" rx="5" ry="5" style="fill:#00bf7f;stroke:none"/><ellipse cx="464.025" cy="297.849" rx="5" ry="5" style="fill:#00bf7f;stroke:none"/><ellipse cx="420.644" cy="221.101" rx="5" ry="5" style="fill:#00bf7f;stroke:none"/><ellipse cx="386.112" cy="212.902" rx="5" ry="5" style="fill:#00bf7f;stroke:none"/><ellipse cx="391.449" cy="204.803" rx="5" ry="5" style="fill:#00bf7f;stroke:none"/><ellipse cx="365.369" cy="193.946" rx="5" ry="5" style="fill:#00bf7f;stroke:none"/><ellipse cx="526.887" cy="360.934" rx="5" ry="5" style="fill:#00bf7f;stroke:none"/><ellipse cx="511.75" cy="344.454" rx="5" ry="5" style="fill:#00bf7f;stroke:none"/><ellipse cx="422.856" cy="242.991" rx="5" ry="5" style="fill:#00bf7f;stroke:none"/><ellipse cx="439.266" cy="276.838" rx="5" ry="5" style="fill:#00bf7f;stroke:none"/><ellipse cx="326.094" cy="367.562" rx="5" ry="5" style="fill:#00bf7f;stroke:none"/><ellipse cx="326.859" cy="277.479" rx="5" ry="5" style="fill:#00bf7f;stroke:none"/><ellipse cx="455.986" cy="232.828" rx="5" ry="5" style="fill:#00bf7f;stroke:none"/><ellipse cx="407.554" cy="239.526" rx="5" ry="5" style="fill:#00bf7f;stroke:none"/><ellipse cx="396.956" cy="211.675" rx="5" ry="5" style="fill:#00bf7f;stroke:none"/><ellipse cx="378.062" cy="199.366" rx="5" ry="5" style="fill:#00bf7f;stroke:none"/><ellipse cx="393.233" cy="204.545" rx="5" ry="5" style="fill:#00bf7f;stroke:none"/><ellipse cx="435.994" cy="307.932" rx="5" ry="5" style="fill:#00bf7f;stroke:none"/><ellipse cx="425.274" cy="260.139" rx="5" ry="5" style="fill:#00bf7f;stroke:none"/><ellipse cx="363.525" cy="246.145" rx="5" ry="5" style="fill:#00bf7f;stroke:none"/><ellipse cx="420.985" cy="216.743" rx="5" ry="5" style="fill:#00bf7f;stroke:none"/><ellipse cx="430.128" cy="259.053" rx="5" ry="5" style="fill:#00bf7f;stroke:none"/><ellipse cx="409.408" cy="249.726" rx="5" ry="5" style="fill:#00bf7f;stroke:none"/><ellipse cx="374.537" cy="199.22" rx="5" ry="5" style="fill:#00bf7f;stroke:none"/><ellipse cx="400.095" cy="217.078" rx="5" ry="5" style="fill:#00bf7f;stroke:none"/><ellipse cx="353.883" cy="271.889" rx="5" ry="5" style="fill:#00bf7f;stroke:none"/><ellipse cx="372.265" cy="291.393" rx="5" ry="5" style="fill:#00bf7f;stroke:none"/><ellipse cx="381.841" cy="250.285" rx="5" ry="5" style="fill:#00bf7f;stroke:none"/><ellipse cx="413.44" cy="261.514" rx="5" ry="5" style="fill:#00bf7f;stroke:none"/><ellipse cx="381.571" cy="234.636" rx="5" ry="5" style="fill:#00bf7f;stroke:none"/><ellipse cx="407.855" cy="180.675" rx="5" ry="5" style="fill:red;stroke:none"/><ellipse cx="493.982" cy="159.744" rx="5" ry="5" style="fill:red;stroke:none"/><ellipse cx="398.708" cy="116.097" rx="5" ry="5" style="fill:red;stroke:none"/><ellipse cx="418.726" cy="121.078" rx="5" ry="5" style="fill:red;stroke:none"/><ellipse cx="440.635" cy="66.367" rx="5" ry="5" style="fill:red;stroke:none"/><ellipse cx="453.59" cy="32.431" rx="5" ry="5" style="fill:red;stroke:none"/><ellipse cx="453.59" cy="32.431" rx="5" ry="5" style="fill:red;stroke:none"/><ellipse cx="405.223" cy="142.135" rx="5" ry="5" style="fill:red;stroke:none"/><ellipse cx="428.869" cy="56.099" rx="5" ry="5" style="fill:red;stroke:none"/><ellipse cx="386.942" cy="105.829" rx="5" ry="5" style="fill:red;stroke:none"/><ellipse cx="386.942" cy="105.829" rx="5" ry="5" style="fill:red;stroke:none"/><ellipse cx="386.942" cy="105.829" rx="5" ry="5" style="fill:red;stroke:none"/><ellipse cx="428.869" cy="56.099" rx="5" ry="5" style="fill:red;stroke:none"/><ellipse cx="415.914" cy="90.036" rx="5" ry="5" style="fill:red;stroke:none"/><ellipse cx="415.914" cy="90.036" rx="5" ry="5" style="fill:red;stroke:none"/><ellipse cx="415.914" cy="90.036" rx="5" ry="5" style="fill:red;stroke:none"/><ellipse cx="394.006" cy="144.746" rx="5" ry="5" style="fill:red;stroke:none"/><text fill="#000" dominant-baseline="hanging" font-family="Segoe UI" font-size="18" font-weight="700" text-anchor="middle" transform="translate(313.249,8)">Customer Segmentation</text><polygon points="34.498 29.079 592 29.079 592 370.947 34.498 370.947" style="fill:none;stroke:#000;stroke-width:1"/><polygon points="509.516 37.08 584 37.08 584 83.239 509.516 83.239" style="fill:none;stroke:none"/><text fill="#000" dominant-baseline="hanging" font-family="Segoe UI" font-size="12" font-weight="400" text-anchor="start" transform="translate(537.516,45.0795)">Cluster: 1</text><ellipse cx="525.516" cy="50.106" rx="5" ry="5" style="fill:#f0f;stroke:none"/><text fill="#000" dominant-baseline="hanging" font-family="Segoe UI" font-size="12" font-weight="400" text-anchor="start" transform="translate(537.516,55.1325)">Cluster: 2</text><ellipse cx="525.516" cy="60.159" rx="5" ry="5" style="fill:#00bf7f;stroke:none"/><text fill="#000" dominant-baseline="hanging" font-family="Segoe UI" font-size="12" font-weight="400" text-anchor="start" transform="translate(537.516,65.1855)">Cluster: 3</text><ellipse cx="525.516" cy="70.212" rx="5" ry="5" style="fill:red;stroke:none"/></svg>